<?xml version="1.0" encoding="UTF-8"?>
<svg width="511px" height="4px" viewBox="0 0 511 4" version="1.1" xmlns="http://www.w3.org/2000/svg" xmlns:xlink="http://www.w3.org/1999/xlink">
    <!-- Generator: Sketch 48.2 (47327) - http://www.bohemiancoding.com/sketch -->
    <title>Group 58</title>
    <desc>Created with Sketch.</desc>
    <defs>
        <rect id="path-1" x="0" y="0" width="256" height="4"></rect>
        <rect id="path-3" x="0" y="0" width="256" height="4"></rect>
    </defs>
    <g id="有Contact-Supplier版本1500" stroke="none" stroke-width="1" fill="none" fill-rule="evenodd" transform="translate(-384.000000, -984.000000)">
        <g id="Group-29-Copy" transform="translate(360.000000, 506.000000)">
            <g id="Group-58" transform="translate(24.000000, 478.000000)">
                <g id="Group-26">
                    <mask id="mask-2" fill="white">
                        <use xlink:href="#path-1"></use>
                    </mask>
                    <use id="Mask" fill="#FFFFFF" xlink:href="#path-1"></use>
                    <g mask="url(#mask-2)" stroke-linecap="square">
                        <g transform="translate(0.000000, -1.000000)">
                            <g id="Group-25-Copy">
                                <g id="Group-25" transform="translate(25.500000, 2.500000) scale(-1, 1) translate(-25.500000, -2.500000) " stroke="#CCCCCC">
                                    <path d="M0,0 L3,5" id="Line-5-Copy-10"></path>
                                    <path d="M3,0 L6,5" id="Line-5-Copy-11"></path>
                                    <path d="M6,0 L9,5" id="Line-5-Copy-12"></path>
                                    <path d="M9,0 L12,5" id="Line-5-Copy-13"></path>
                                    <path d="M12,0 L15,5" id="Line-5-Copy-14"></path>
                                    <path d="M15,0 L18,5" id="Line-5-Copy-15"></path>
                                    <path d="M18,0 L21,5" id="Line-5-Copy-16"></path>
                                    <path d="M21,0 L24,5" id="Line-5-Copy-17"></path>
                                    <path d="M24,0 L27,5" id="Line-5-Copy-18"></path>
                                    <path d="M27,0 L30,5" id="Line-5-Copy-19"></path>
                                    <path d="M30,0 L33,5" id="Line-5-Copy-20"></path>
                                    <path d="M33,0 L36,5" id="Line-5-Copy-21"></path>
                                    <path d="M36,0 L39,5" id="Line-5-Copy-22"></path>
                                    <path d="M39,0 L42,5" id="Line-5-Copy-23"></path>
                                    <path d="M42,0 L45,5" id="Line-5-Copy-24"></path>
                                    <path d="M45,0 L48,5" id="Line-5-Copy-25"></path>
                                    <path d="M48,0 L51,5" id="Line-5-Copy-26"></path>
                                </g>
                            </g>
                            <g id="Group-25-Copy-2" transform="translate(51.000000, 0.000000)">
                                <g id="Group-25" transform="translate(25.500000, 2.500000) scale(-1, 1) translate(-25.500000, -2.500000) " stroke="#CCCCCC">
                                    <path d="M0,0 L3,5" id="Line-5-Copy-10"></path>
                                    <path d="M3,0 L6,5" id="Line-5-Copy-11"></path>
                                    <path d="M6,0 L9,5" id="Line-5-Copy-12"></path>
                                    <path d="M9,0 L12,5" id="Line-5-Copy-13"></path>
                                    <path d="M12,0 L15,5" id="Line-5-Copy-14"></path>
                                    <path d="M15,0 L18,5" id="Line-5-Copy-15"></path>
                                    <path d="M18,0 L21,5" id="Line-5-Copy-16"></path>
                                    <path d="M21,0 L24,5" id="Line-5-Copy-17"></path>
                                    <path d="M24,0 L27,5" id="Line-5-Copy-18"></path>
                                    <path d="M27,0 L30,5" id="Line-5-Copy-19"></path>
                                    <path d="M30,0 L33,5" id="Line-5-Copy-20"></path>
                                    <path d="M33,0 L36,5" id="Line-5-Copy-21"></path>
                                    <path d="M36,0 L39,5" id="Line-5-Copy-22"></path>
                                    <path d="M39,0 L42,5" id="Line-5-Copy-23"></path>
                                    <path d="M42,0 L45,5" id="Line-5-Copy-24"></path>
                                    <path d="M45,0 L48,5" id="Line-5-Copy-25"></path>
                                    <path d="M48,0 L51,5" id="Line-5-Copy-26"></path>
                                </g>
                            </g>
                            <g id="Group-25-Copy-3" transform="translate(102.000000, 0.000000)">
                                <g id="Group-25" transform="translate(25.500000, 2.500000) scale(-1, 1) translate(-25.500000, -2.500000) " stroke="#CCCCCC">
                                    <path d="M0,0 L3,5" id="Line-5-Copy-10"></path>
                                    <path d="M3,0 L6,5" id="Line-5-Copy-11"></path>
                                    <path d="M6,0 L9,5" id="Line-5-Copy-12"></path>
                                    <path d="M9,0 L12,5" id="Line-5-Copy-13"></path>
                                    <path d="M12,0 L15,5" id="Line-5-Copy-14"></path>
                                    <path d="M15,0 L18,5" id="Line-5-Copy-15"></path>
                                    <path d="M18,0 L21,5" id="Line-5-Copy-16"></path>
                                    <path d="M21,0 L24,5" id="Line-5-Copy-17"></path>
                                    <path d="M24,0 L27,5" id="Line-5-Copy-18"></path>
                                    <path d="M27,0 L30,5" id="Line-5-Copy-19"></path>
                                    <path d="M30,0 L33,5" id="Line-5-Copy-20"></path>
                                    <path d="M33,0 L36,5" id="Line-5-Copy-21"></path>
                                    <path d="M36,0 L39,5" id="Line-5-Copy-22"></path>
                                    <path d="M39,0 L42,5" id="Line-5-Copy-23"></path>
                                    <path d="M42,0 L45,5" id="Line-5-Copy-24"></path>
                                    <path d="M45,0 L48,5" id="Line-5-Copy-25"></path>
                                    <path d="M48,0 L51,5" id="Line-5-Copy-26"></path>
                                </g>
                            </g>
                            <g id="Group-25-Copy-4" transform="translate(153.000000, 0.000000)">
                                <g id="Group-25" transform="translate(25.500000, 2.500000) scale(-1, 1) translate(-25.500000, -2.500000) " stroke="#CCCCCC">
                                    <path d="M0,0 L3,5" id="Line-5-Copy-10"></path>
                                    <path d="M3,0 L6,5" id="Line-5-Copy-11"></path>
                                    <path d="M6,0 L9,5" id="Line-5-Copy-12"></path>
                                    <path d="M9,0 L12,5" id="Line-5-Copy-13"></path>
                                    <path d="M12,0 L15,5" id="Line-5-Copy-14"></path>
                                    <path d="M15,0 L18,5" id="Line-5-Copy-15"></path>
                                    <path d="M18,0 L21,5" id="Line-5-Copy-16"></path>
                                    <path d="M21,0 L24,5" id="Line-5-Copy-17"></path>
                                    <path d="M24,0 L27,5" id="Line-5-Copy-18"></path>
                                    <path d="M27,0 L30,5" id="Line-5-Copy-19"></path>
                                    <path d="M30,0 L33,5" id="Line-5-Copy-20"></path>
                                    <path d="M33,0 L36,5" id="Line-5-Copy-21"></path>
                                    <path d="M36,0 L39,5" id="Line-5-Copy-22"></path>
                                    <path d="M39,0 L42,5" id="Line-5-Copy-23"></path>
                                    <path d="M42,0 L45,5" id="Line-5-Copy-24"></path>
                                    <path d="M45,0 L48,5" id="Line-5-Copy-25"></path>
                                    <path d="M48,0 L51,5" id="Line-5-Copy-26"></path>
                                </g>
                            </g>
                            <g id="Group-25-Copy-5" transform="translate(204.000000, 0.000000)">
                                <g id="Group-25" transform="translate(25.500000, 2.500000) scale(-1, 1) translate(-25.500000, -2.500000) " stroke="#CCCCCC">
                                    <path d="M0,0 L3,5" id="Line-5-Copy-10"></path>
                                    <path d="M3,0 L6,5" id="Line-5-Copy-11"></path>
                                    <path d="M6,0 L9,5" id="Line-5-Copy-12"></path>
                                    <path d="M9,0 L12,5" id="Line-5-Copy-13"></path>
                                    <path d="M12,0 L15,5" id="Line-5-Copy-14"></path>
                                    <path d="M15,0 L18,5" id="Line-5-Copy-15"></path>
                                    <path d="M18,0 L21,5" id="Line-5-Copy-16"></path>
                                    <path d="M21,0 L24,5" id="Line-5-Copy-17"></path>
                                    <path d="M24,0 L27,5" id="Line-5-Copy-18"></path>
                                    <path d="M27,0 L30,5" id="Line-5-Copy-19"></path>
                                    <path d="M30,0 L33,5" id="Line-5-Copy-20"></path>
                                    <path d="M33,0 L36,5" id="Line-5-Copy-21"></path>
                                    <path d="M36,0 L39,5" id="Line-5-Copy-22"></path>
                                    <path d="M39,0 L42,5" id="Line-5-Copy-23"></path>
                                    <path d="M42,0 L45,5" id="Line-5-Copy-24"></path>
                                    <path d="M45,0 L48,5" id="Line-5-Copy-25"></path>
                                    <path d="M48,0 L51,5" id="Line-5-Copy-26"></path>
                                </g>
                            </g>
                        </g>
                    </g>
                </g>
                <g id="Group-26" transform="translate(255.000000, 0.000000)">
                    <mask id="mask-4" fill="white">
                        <use xlink:href="#path-3"></use>
                    </mask>
                    <use id="Mask" fill="#FFFFFF" xlink:href="#path-3"></use>
                    <g mask="url(#mask-4)" stroke-linecap="square">
                        <g transform="translate(0.000000, -1.000000)">
                            <g id="Group-25-Copy">
                                <g id="Group-25" transform="translate(25.500000, 2.500000) scale(-1, 1) translate(-25.500000, -2.500000) " stroke="#CCCCCC">
                                    <path d="M0,0 L3,5" id="Line-5-Copy-10"></path>
                                    <path d="M3,0 L6,5" id="Line-5-Copy-11"></path>
                                    <path d="M6,0 L9,5" id="Line-5-Copy-12"></path>
                                    <path d="M9,0 L12,5" id="Line-5-Copy-13"></path>
                                    <path d="M12,0 L15,5" id="Line-5-Copy-14"></path>
                                    <path d="M15,0 L18,5" id="Line-5-Copy-15"></path>
                                    <path d="M18,0 L21,5" id="Line-5-Copy-16"></path>
                                    <path d="M21,0 L24,5" id="Line-5-Copy-17"></path>
                                    <path d="M24,0 L27,5" id="Line-5-Copy-18"></path>
                                    <path d="M27,0 L30,5" id="Line-5-Copy-19"></path>
                                    <path d="M30,0 L33,5" id="Line-5-Copy-20"></path>
                                    <path d="M33,0 L36,5" id="Line-5-Copy-21"></path>
                                    <path d="M36,0 L39,5" id="Line-5-Copy-22"></path>
                                    <path d="M39,0 L42,5" id="Line-5-Copy-23"></path>
                                    <path d="M42,0 L45,5" id="Line-5-Copy-24"></path>
                                    <path d="M45,0 L48,5" id="Line-5-Copy-25"></path>
                                    <path d="M48,0 L51,5" id="Line-5-Copy-26"></path>
                                </g>
                            </g>
                            <g id="Group-25-Copy-2" transform="translate(51.000000, 0.000000)">
                                <g id="Group-25" transform="translate(25.500000, 2.500000) scale(-1, 1) translate(-25.500000, -2.500000) " stroke="#CCCCCC">
                                    <path d="M0,0 L3,5" id="Line-5-Copy-10"></path>
                                    <path d="M3,0 L6,5" id="Line-5-Copy-11"></path>
                                    <path d="M6,0 L9,5" id="Line-5-Copy-12"></path>
                                    <path d="M9,0 L12,5" id="Line-5-Copy-13"></path>
                                    <path d="M12,0 L15,5" id="Line-5-Copy-14"></path>
                                    <path d="M15,0 L18,5" id="Line-5-Copy-15"></path>
                                    <path d="M18,0 L21,5" id="Line-5-Copy-16"></path>
                                    <path d="M21,0 L24,5" id="Line-5-Copy-17"></path>
                                    <path d="M24,0 L27,5" id="Line-5-Copy-18"></path>
                                    <path d="M27,0 L30,5" id="Line-5-Copy-19"></path>
                                    <path d="M30,0 L33,5" id="Line-5-Copy-20"></path>
                                    <path d="M33,0 L36,5" id="Line-5-Copy-21"></path>
                                    <path d="M36,0 L39,5" id="Line-5-Copy-22"></path>
                                    <path d="M39,0 L42,5" id="Line-5-Copy-23"></path>
                                    <path d="M42,0 L45,5" id="Line-5-Copy-24"></path>
                                    <path d="M45,0 L48,5" id="Line-5-Copy-25"></path>
                                    <path d="M48,0 L51,5" id="Line-5-Copy-26"></path>
                                </g>
                            </g>
                            <g id="Group-25-Copy-3" transform="translate(102.000000, 0.000000)">
                                <g id="Group-25" transform="translate(25.500000, 2.500000) scale(-1, 1) translate(-25.500000, -2.500000) " stroke="#CCCCCC">
                                    <path d="M0,0 L3,5" id="Line-5-Copy-10"></path>
                                    <path d="M3,0 L6,5" id="Line-5-Copy-11"></path>
                                    <path d="M6,0 L9,5" id="Line-5-Copy-12"></path>
                                    <path d="M9,0 L12,5" id="Line-5-Copy-13"></path>
                                    <path d="M12,0 L15,5" id="Line-5-Copy-14"></path>
                                    <path d="M15,0 L18,5" id="Line-5-Copy-15"></path>
                                    <path d="M18,0 L21,5" id="Line-5-Copy-16"></path>
                                    <path d="M21,0 L24,5" id="Line-5-Copy-17"></path>
                                    <path d="M24,0 L27,5" id="Line-5-Copy-18"></path>
                                    <path d="M27,0 L30,5" id="Line-5-Copy-19"></path>
                                    <path d="M30,0 L33,5" id="Line-5-Copy-20"></path>
                                    <path d="M33,0 L36,5" id="Line-5-Copy-21"></path>
                                    <path d="M36,0 L39,5" id="Line-5-Copy-22"></path>
                                    <path d="M39,0 L42,5" id="Line-5-Copy-23"></path>
                                    <path d="M42,0 L45,5" id="Line-5-Copy-24"></path>
                                    <path d="M45,0 L48,5" id="Line-5-Copy-25"></path>
                                    <path d="M48,0 L51,5" id="Line-5-Copy-26"></path>
                                </g>
                            </g>
                            <g id="Group-25-Copy-4" transform="translate(153.000000, 0.000000)">
                                <g id="Group-25" transform="translate(25.500000, 2.500000) scale(-1, 1) translate(-25.500000, -2.500000) " stroke="#CCCCCC">
                                    <path d="M0,0 L3,5" id="Line-5-Copy-10"></path>
                                    <path d="M3,0 L6,5" id="Line-5-Copy-11"></path>
                                    <path d="M6,0 L9,5" id="Line-5-Copy-12"></path>
                                    <path d="M9,0 L12,5" id="Line-5-Copy-13"></path>
                                    <path d="M12,0 L15,5" id="Line-5-Copy-14"></path>
                                    <path d="M15,0 L18,5" id="Line-5-Copy-15"></path>
                                    <path d="M18,0 L21,5" id="Line-5-Copy-16"></path>
                                    <path d="M21,0 L24,5" id="Line-5-Copy-17"></path>
                                    <path d="M24,0 L27,5" id="Line-5-Copy-18"></path>
                                    <path d="M27,0 L30,5" id="Line-5-Copy-19"></path>
                                    <path d="M30,0 L33,5" id="Line-5-Copy-20"></path>
                                    <path d="M33,0 L36,5" id="Line-5-Copy-21"></path>
                                    <path d="M36,0 L39,5" id="Line-5-Copy-22"></path>
                                    <path d="M39,0 L42,5" id="Line-5-Copy-23"></path>
                                    <path d="M42,0 L45,5" id="Line-5-Copy-24"></path>
                                    <path d="M45,0 L48,5" id="Line-5-Copy-25"></path>
                                    <path d="M48,0 L51,5" id="Line-5-Copy-26"></path>
                                </g>
                            </g>
                            <g id="Group-25-Copy-5" transform="translate(204.000000, 0.000000)">
                                <g id="Group-25" transform="translate(25.500000, 2.500000) scale(-1, 1) translate(-25.500000, -2.500000) " stroke="#CCCCCC">
                                    <path d="M0,0 L3,5" id="Line-5-Copy-10"></path>
                                    <path d="M3,0 L6,5" id="Line-5-Copy-11"></path>
                                    <path d="M6,0 L9,5" id="Line-5-Copy-12"></path>
                                    <path d="M9,0 L12,5" id="Line-5-Copy-13"></path>
                                    <path d="M12,0 L15,5" id="Line-5-Copy-14"></path>
                                    <path d="M15,0 L18,5" id="Line-5-Copy-15"></path>
                                    <path d="M18,0 L21,5" id="Line-5-Copy-16"></path>
                                    <path d="M21,0 L24,5" id="Line-5-Copy-17"></path>
                                    <path d="M24,0 L27,5" id="Line-5-Copy-18"></path>
                                    <path d="M27,0 L30,5" id="Line-5-Copy-19"></path>
                                    <path d="M30,0 L33,5" id="Line-5-Copy-20"></path>
                                    <path d="M33,0 L36,5" id="Line-5-Copy-21"></path>
                                    <path d="M36,0 L39,5" id="Line-5-Copy-22"></path>
                                    <path d="M39,0 L42,5" id="Line-5-Copy-23"></path>
                                    <path d="M42,0 L45,5" id="Line-5-Copy-24"></path>
                                    <path d="M45,0 L48,5" id="Line-5-Copy-25"></path>
                                    <path d="M48,0 L51,5" id="Line-5-Copy-26"></path>
                                </g>
                            </g>
                        </g>
                    </g>
                </g>
            </g>
        </g>
    </g>
</svg>