<?xml version="1.0" encoding="UTF-8"?>
<svg width="111px" height="45px" viewBox="0 0 111 45" version="1.1" xmlns="http://www.w3.org/2000/svg" xmlns:xlink="http://www.w3.org/1999/xlink">
    <!-- Generator: Sketch 53.2 (72643) - https://sketchapp.com -->
    <title>logo</title>
    <desc>Created with Sketch.</desc>
    <g id="Page-1" stroke="none" stroke-width="1" fill="none" fill-rule="evenodd">
        <g id="Default-Landscape-Copy" transform="translate(-449.000000, -512.000000)">
            <g id="logo" transform="translate(449.000000, 512.000000)">
                <path d="M13.0413885,22.29 C12.6857125,21.9699984 12.2411242,21.7250008 11.7076101,21.555 C11.1740961,21.3849991 10.6504699,21.3 10.1367156,21.3 C9.56368205,21.3 9.04005578,21.4049989 8.56582109,21.615 C8.09158641,21.825001 7.68157716,22.1149981 7.33578104,22.485 C6.98998492,22.8550018 6.71829204,23.2999974 6.52069426,23.82 C6.32309648,24.3400026 6.22429907,24.899997 6.22429907,25.5 C6.22429907,26.100003 6.33297622,26.6599974 6.55033378,27.18 C6.76769134,27.7000026 7.06408357,28.1449981 7.43951936,28.515 C7.81495515,28.8850018 8.25460362,29.1749989 8.75847797,29.385 C9.26235232,29.595001 9.8007982,29.7 10.3738318,29.7 C11.0456642,29.7 11.6582082,29.5550014 12.211482,29.265 C12.7647558,28.9749985 13.2389833,28.5800025 13.6341789,28.08 L11.8558077,28.08 L11.8558077,23.88 L19.4731642,23.88 L19.4731642,30.54 C19.0186893,31.3600041 18.4753036,32.1049966 17.8429907,32.775 C17.2106777,33.4450033 16.5042763,34.0199976 15.723765,34.5 C14.9432538,34.9800024 14.0985359,35.3499987 13.1895861,35.61 C12.2806363,35.8700013 11.3420609,36 10.3738318,36 C8.95112773,36 7.60748296,35.7300027 6.34285714,35.19 C5.07823133,34.6499973 3.97664021,33.9100047 3.03805073,32.97 C2.09946126,32.0299953 1.35848069,30.9200064 0.815086782,29.64 C0.271692877,28.3599936 0,26.9800074 0,25.5 C0,24.0599928 0.256873266,22.7000064 0.770627503,21.42 C1.28438174,20.1399936 1.99078322,19.0250047 2.88985314,18.075 C3.78892305,17.1249952 4.85593508,16.3750027 6.09092123,15.825 C7.32590738,15.2749973 8.65473254,15 10.0774366,15 C11.1839842,15 12.142319,15.1099989 12.95247,15.33 C13.7626209,15.5500011 14.444323,15.7999986 14.9975968,16.08 C15.6496695,16.4000016 16.1930552,16.7499981 16.6277704,17.13 L13.0413885,22.29 Z M13.3377837,18.42 C13.0809066,18.2999994 12.7943941,18.2000004 12.4782377,18.12 C12.2016008,18.0399996 11.8755693,17.9700003 11.5001335,17.91 C11.1246977,17.8499997 10.7097486,17.82 10.2552737,17.82 C9.20800544,17.82 8.22991109,18.0099981 7.32096128,18.39 C6.41201148,18.7700019 5.6216322,19.2949966 4.94979973,19.965 C4.27796727,20.6350033 3.74940113,21.4399953 3.36408545,22.38 C2.97876977,23.3200047 2.78611482,24.3599943 2.78611482,25.5 C2.78611482,26.6400057 2.98370964,27.6799953 3.37890521,28.62 C3.77410077,29.5600047 4.31748653,30.3649966 5.00907877,31.035 C5.70067101,31.7050033 6.50586991,32.2299981 7.4246996,32.61 C8.34352929,32.9900019 9.32656352,33.18 10.3738318,33.18 C11.7372565,33.18 12.9722241,32.8550032 14.0787717,32.205 C15.1853193,31.5549967 16.0843757,30.6900054 16.775968,29.61 L16.775968,25.68 L13.6341789,25.68 L13.6341789,26.4 L16.0053405,26.4 L16.0053405,29.4 C15.3927873,30.3200046 14.5974682,31.0499973 13.6193591,31.59 C12.6412501,32.1300027 11.5594185,32.4 10.3738318,32.4 C9.42536241,32.4 8.5411256,32.2350016 7.72109479,31.905 C6.90106399,31.5749983 6.1798429,31.105003 5.55740988,30.495 C4.93497686,29.8849969 4.44592968,29.1550042 4.09025367,28.305 C3.73457766,27.4549957 3.55674232,26.5200051 3.55674232,25.5 C3.55674232,24.4799949 3.72963779,23.5450042 4.07543391,22.695 C4.42123003,21.8449957 4.8954576,21.115003 5.49813084,20.505 C6.10080408,19.8949969 6.80720556,19.4250016 7.61735648,19.095 C8.42750739,18.7649983 9.30680434,18.6 10.2552737,18.6 C10.6109497,18.6 10.9468609,18.6299997 11.2630174,18.69 C11.5791738,18.7500003 11.8558066,18.8099997 12.0929239,18.87 C12.3695608,18.9500004 12.6264341,19.0299996 12.8635514,19.11 L13.3377837,18.42 Z M62.5986649,15.48 L74.246996,15.48 L74.246996,20.73 L68.9118825,20.73 L68.9118825,22.95 L74.1580774,22.95 L74.1580774,27.93 L68.9118825,27.93 L68.9118825,35.49 L62.5986649,35.49 L62.5986649,15.48 Z M66.3332443,33.09 L66.3332443,25.8 L71.964753,25.8 L71.964753,25.08 L66.3332443,25.08 L66.3332443,18.6 L72.2611482,18.6 L72.2611482,17.88 L65.5626168,17.88 L65.5626168,33.09 L66.3332443,33.09 Z M83.9687583,36 C82.7238923,36 81.5976018,35.8400016 80.5898531,35.52 C79.5821044,35.1999984 78.722567,34.7200032 78.011215,34.08 C77.2998629,33.4399968 76.7515373,32.6300049 76.3662216,31.65 C75.980906,30.6699951 75.788251,29.5200066 75.788251,28.2 L75.788251,15.48 L82.1014686,15.48 L82.1014686,27.93 C82.1014686,28.6300035 82.2447249,29.1649982 82.5312417,29.535 C82.8177584,29.9050019 83.2969259,30.09 83.9687583,30.09 C84.6405908,30.09 85.1197582,29.9050019 85.406275,29.535 C85.6927918,29.1649982 85.8360481,28.6300035 85.8360481,27.93 L85.8360481,15.48 L92.1789052,15.48 L92.1789052,28.2 C92.1789052,29.5200066 91.9862503,30.6699951 91.6009346,31.65 C91.2156189,32.6300049 90.6623534,33.4399968 89.9411215,34.08 C89.2198896,34.7200032 88.3554122,35.1999984 87.3476636,35.52 C86.3399149,35.8400016 85.2136244,36 83.9687583,36 Z M83.9687583,32.4 C81.0047916,32.4 79.5228304,30.9300147 79.5228304,27.99 L79.5228304,17.88 L78.7522029,17.88 L78.7522029,27.99 C78.7522029,29.6700084 79.2017312,30.9549955 80.1008011,31.845 C80.999871,32.7350044 82.2891772,33.18 83.9687583,33.18 C85.6483395,33.18 86.9425856,32.7350044 87.8515354,31.845 C88.7604852,30.9549955 89.2149533,29.6700084 89.2149533,27.99 L89.2149533,17.88 L88.4146862,17.88 L88.4146862,27.99 C88.4146862,30.9300147 86.9327251,32.4 83.9687583,32.4 Z M94.164753,15.48 L99.3516689,15.48 L104.80534,23.19 L104.80534,15.48 L111,15.48 L111,35.49 L105.783445,35.49 L100.359413,27.81 L100.359413,35.49 L94.164753,35.49 L94.164753,15.48 Z M97.6918558,33.09 L97.6918558,19.23 L107.472897,33.09 L108.243525,33.09 L108.243525,17.88 L107.472897,17.88 L107.472897,31.74 L97.6918558,17.88 L96.9212283,17.88 L96.9212283,33.09 L97.6918558,33.09 Z" id="G-FUN" fill="#0079CB"></path>
                <path d="M33.1055444,27.4066283 C32.9870722,27.1773847 32.9131989,26.8122693 32.88864,26.3114965 L32,26.3114965 C32,26.9404138 32.0948957,27.4386108 32.2860623,27.8073753 C32.6342096,28.4899545 33.2943534,28.8666609 34.2661008,28.9370653 L34.2661008,30 L34.7433298,30 L34.7433298,28.9370653 C35.3482652,28.8627973 35.8113482,28.7142612 36.1325789,28.4875934 C36.7117765,28.0791191 37,27.3885979 37,26.4153859 C37,25.7428952 36.773665,25.2358977 36.3235491,24.8937495 C36.0445597,24.6848974 35.5193917,24.4608054 34.7433298,24.2251223 L34.7433298,21.5559801 C35.205234,21.5752984 35.5404142,21.7686958 35.7516209,22.1374603 C35.864199,22.3372972 35.9333569,22.5768438 35.9555582,22.8558856 L36.8335887,22.8558856 C36.8170852,22.2372714 36.6308303,21.7377866 36.2744312,21.3612948 C35.9180321,20.9822272 35.4070101,20.7695115 34.742151,20.7184253 L34.742151,20 L34.264922,20 L34.264922,20.7287284 C33.5931864,20.7351679 33.0691972,20.9631236 32.6974734,21.407444 C32.325946,21.8530523 32.1394947,22.3540397 32.1394947,22.9084743 C32.1394947,23.5296643 32.3118001,24.0162703 32.6575897,24.367219 C33.0022005,24.7168799 33.5391567,24.9690908 34.264922,25.1191294 L34.264922,28.10595 C33.7010492,28.0522881 33.314197,27.8204688 33.1055444,27.4066283 Z M34.7433298,25.2498497 C35.1594562,25.3728428 35.4584856,25.5033485 35.6355063,25.6456598 C35.9425911,25.8839186 36.0985893,26.2284279 36.0985893,26.6856272 C36.0985893,26.9738989 36.0412197,27.2286855 35.9274628,27.4463381 C35.7105584,27.8741307 35.3154544,28.1046621 34.7445086,28.1314931 L34.7433298,25.2498497 L34.7433298,25.2498497 Z M33.3739243,23.6925818 C33.1534834,23.4888813 33.043263,23.2046879 33.043263,22.8434361 C33.043263,22.5463639 33.1369798,22.2568043 33.3222523,21.9826994 C33.5110613,21.7098824 33.8252191,21.563922 34.2659044,21.5446038 L34.2659044,24.1201597 C33.8933946,24.038379 33.595544,23.8960677 33.3739243,23.6925818 Z" id="Shape" fill="#FF0000" fill-rule="nonzero"></path>
                <path d="M40,12 C37.1005062,8.14297739 35.2190598,5.00622861 31.5614228,0 C30.5138262,0.211660401 28.1188266,2.35587229 29.3374638,3.47141013 C31.7428164,6.89725605 36.6628753,9.88788508 40,12 Z" id="Shape" fill="#1EB2F6" fill-rule="nonzero"></path>
                <path d="M44,13 C42.4887347,9.72721157 40.8212689,6.62891019 38.8921412,3 C37.8125761,3.1906744 36.9755934,3.84678776 37.0005436,4.89665321 C38.379091,7.23477968 39.4012078,10.7371342 44,13 Z" id="Shape" fill="#1EB2F6" fill-rule="nonzero"></path>
                <path d="M36.5254697,10.3016547 C33.003797,8.25968496 29.2467471,5.99930647 24.0997881,3 C23.1530194,4.18228476 22.3657988,6.01478254 23.7414625,7.13080355 C27.0630426,9.82560194 30.7374694,12.2110968 33.1254304,13.2737145 C35.3930729,14.2829288 38.5562008,14.6979491 44.1506833,16.2013079 C38.7957421,15.5888042 35.7513986,14.876033 33.1372651,15.3584069 C27.9743075,16.3170515 24.661932,20.8678887 25.5120514,24.6279205 C26.1305193,25.2391163 27.1480765,25.4928367 27.9784715,25.386248 C27.9758416,21.8252255 30.8540622,18.962588 34.4057598,18.962588 C37.9587723,18.962588 40.8369929,21.8265333 40.8369929,25.3590014 C40.8369929,28.8940851 37.9561423,31.7554148 34.4057598,31.7554148 C31.1494891,31.7554148 28.4884555,29.3426733 28.0621904,26.2173785 C26.9311086,25.659368 24.3482147,26.059082 24.0997881,27.7170317 C22.9165464,35.6137523 39.5836202,33.488517 47.617347,42.1747352 C52.9731648,47.9655473 56.1007159,44.8544934 57,32.8415735 C53.407758,28.5937186 52.6126476,22.7710097 48.6686547,18.4477361 C45.6087509,15.0918261 40.6355854,12.6858417 36.5254697,10.3016547 Z" id="Shape" fill="#22ACF0" fill-rule="nonzero"></path>
                <circle id="Oval-2" fill="#FFA200" fill-rule="nonzero" cx="89" cy="20" r="3"></circle>
                <circle id="Oval" fill="#FFFFFF" fill-rule="nonzero" cx="88.5" cy="19.5" r="1.5"></circle>
                <circle id="Oval-2" fill="#FFA200" fill-rule="nonzero" cx="79" cy="20" r="3"></circle>
                <circle id="Oval" fill="#FFFFFF" fill-rule="nonzero" cx="77.5" cy="19.5" r="1.5"></circle>
            </g>
        </g>
    </g>
</svg>