<?xml version="1.0" encoding="utf-8"?><!DOCTYPE svg PUBLIC "-//W3C//DTD SVG 1.1//EN" "http://www.w3.org/Graphics/SVG/1.1/DTD/svg11.dtd"><svg width="320" height="256" viewBox="0 0 320 256" xmlns="http://www.w3.org/2000/svg" xmlns:xlink="http://www.w3.org/1999/xlink"><svg width="64" height="64" viewBox="0 0 64 64" id="a-and-v-checked" x="64"><path fill="#F2B211" d="M57.854 35.437l-8.31 8.337-.01.008c-.66.66-1.44 1.11-2.277 1.352a5.38 5.38 0 0 1-5.353-1.36l-9.94-9.936-2.295 2.294c-.436.435-.927.79-1.458 1.038-.266.13-.547.24-.83.322a5.48 5.48 0 0 1-2.47.136 5.18 5.18 0 0 1-1.038-.282 5.203 5.203 0 0 1-.958-.5 6.078 6.078 0 0 1-.877-.715h-.01l-.675-.828 6.03-6.044 4.565-4.563.016-.016v-.01a3.24 3.24 0 0 1 4.58.002l2.294 2.294 5.266-5.28 13.748 13.75z"/><path fill="#FACE32" d="M49.535 43.782L38.827 54.486A9.63 9.63 0 0 1 32 57.318a9.648 9.648 0 0 1-6.72-2.722L6.15 35.436 19.9 21.685l5.19 5.286 2.296-2.294a3.216 3.216 0 0 1 4.572 0l-.008.01v.007l-4.565 4.563-6.03 6.044.676.83h.01c.273.273.57.506.876.715.306.2.628.37.958.5.338.128.684.224 1.038.28a5.48 5.48 0 0 0 2.47-.136c.283-.08.564-.192.83-.32a5.207 5.207 0 0 0 1.457-1.04l2.294-2.286 6.92 6.924 3.01 3.01a5.368 5.368 0 0 0 5.362 1.354c.838-.24 1.62-.69 2.28-1.35z"/><path fill="#4F74B3" d="M19.9 21.68L6.153 35.435l-4.597-4.612A5.336 5.336 0 0 1 0 27.057V8.014C0 7.278.597 6.68 1.333 6.68h2.493c.708 0 1.385.28 1.885.78 5.182 5.195 14.19 14.22 14.19 14.22zM64 8.014v19.05c0 1.41-.56 2.764-1.556 3.764l-4.59 4.606L44.106 21.68s9.007-9.024 14.18-14.218c.5-.502 1.178-.78 1.887-.78h2.492c.737 0 1.334.596 1.334 1.332z"/></svg><svg width="64" height="64" viewBox="0 0 64 64" id="assessed-supplier" x="192"><circle fill="#4F74B3" cx="32" cy="32" r="32"/><circle fill="#FFF" cx="32" cy="32" r="22.667"/><circle fill="#4F74B3" cx="32.107" cy="32" r="20"/><path fill="#E36E5B" d="M31.587 43.933a5.015 5.015 0 0 1-3.82-1.738l-6.84-7.81c-.506-.57-.778-1.304-.778-2.114a3.208 3.208 0 0 1 3.203-3.203c.507 0 1.01.123 1.494.365l5.27 2.87L43.22 14.495l.026-.03c.66-.793 1.57-1.23 2.56-1.23a3.208 3.208 0 0 1 3.203 3.204 3.06 3.06 0 0 1-.4 1.52L36.055 41.286a5.088 5.088 0 0 1-4.467 2.647z"/><path fill="#FFF" d="M45.808 14.57c1.01 0 1.87.823 1.87 1.87 0 .3-.074.6-.224.862L34.88 40.654a3.75 3.75 0 0 1-3.293 1.946 3.684 3.684 0 0 1-2.807-1.272l-6.848-7.822c-.3-.337-.45-.75-.45-1.235 0-1.01.824-1.87 1.872-1.87.3 0 .6.075.898.225l6.25 3.406 13.772-18.71c.374-.45.897-.75 1.534-.75m0-2.667c-1.392 0-2.665.606-3.583 1.708l-.052.063-.048.065-12.392 16.837-4.206-2.292-.042-.023-.042-.02a4.64 4.64 0 0 0-2.09-.507 4.543 4.543 0 0 0-4.538 4.538c0 1.142.388 2.182 1.123 3.008l6.835 7.806c1.182 1.38 2.943 2.182 4.813 2.182a6.418 6.418 0 0 0 5.63-3.33L49.79 18.59c.364-.652.556-1.393.556-2.15a4.543 4.543 0 0 0-4.538-4.537z"/></svg><svg width="64" height="64" viewBox="0 0 64 64" id="business-identity" y="64"><path fill="#4F74B3" d="M62.667 57.333H1.333A1.333 1.333 0 0 1 0 56V8c0-.736.597-1.333 1.333-1.333h61.333C63.403 6.667 64 7.264 64 8v48c0 .736-.597 1.333-1.333 1.333z"/><circle fill="#FFF" cx="18.666" cy="25.337" r="5.333"/><path fill="#FACE32" d="M43.06 49.333l-8.394-8.32 3.205-3.176 5.19 5.143 9.736-9.647L56 36.51z"/><path fill="#375EA3" d="M34.667 14.667H56v2.667H34.667z"/><path fill="#FFF" d="M29.333 49.333H8V36a2.667 2.667 0 0 1 2.667-2.667h16A2.667 2.667 0 0 1 29.334 36v13.333z"/><path fill="#375EA3" d="M34.667 20H56v2.667H34.667zM34.667 25.333H56V28H34.667z"/></svg><svg width="64" height="64" viewBox="0 0 64 64" id="company-video" x="64" y="64"><path fill="#4F74B3" d="M62.667 57.333H1.333A1.333 1.333 0 0 1 0 56V8c0-.736.597-1.333 1.333-1.333h61.333C63.403 6.667 64 7.264 64 8v48c0 .736-.597 1.333-1.333 1.333z"/><path fill="#FFF" d="M41.333 32l-16 9.24V22.76zM26.667 13.333h10.667v1.333H26.667zM13.333 13.333H24v1.333H13.333zM40 13.333h10.667v1.333H40zM53.333 13.333H64v1.333H53.333zM0 13.333h10.667v1.333H0zM26.667 49.333h10.667v1.333H26.667zM13.333 49.333H24v1.333H13.333zM40 49.333h10.667v1.333H40zM53.333 49.333H64v1.333H53.333zM0 49.333h10.667v1.333H0z"/></svg><svg width="64" height="64" viewBox="0 0 64 64" id="diamond" x="128"><title>64x64</title><path d="M62.497 24.595L49.707 7.878a1.522 1.522 0 0 0-1.21-.598H14.254s-.974.107-1.596 1.015C11.04 10.662.796 25.36.796 25.36l-.685.988.806.893 27.835 30.816c.22.244.43.437.657.585.445.292 2.05.718 2.995.018.213-.157.434-.33.654-.567l26.244-25.407A1.52 1.52 0 1 0 57.19 30.5L34.563 52.69l9.85-25.62.006-.015h16.107c.145 0 1.178-.026 1.52-.224a1.52 1.52 0 0 0 .45-2.236zM48.883 10.083l-6.075 13.742h-22.17l-5.68-13.742h33.925zm-36.016 2.905l4.647 10.837H5.397l7.47-10.837zM4.6 26.808H18.46L27.352 52 4.6 26.807zM30.957 53.78l-9.41-26.96h19.618L30.958 53.78zM45.82 24.017l4.647-10.202 7.77 10.202H45.82z" fill="#F60" fill-rule="evenodd"/></svg><svg width="64" height="64" viewBox="0 0 64 64" id="diamond-level-half" x="128" y="64"><title>钻石线（64x64) copy</title><defs><filter id="fa" filterUnits="userSpaceOnUse" x=".61" y="4.728" width="61.982" height="54.188"><feColorMatrix values="1 0 0 0 0 0 1 0 0 0 0 0 1 0 0 0 0 0 1 0"/></filter></defs><mask maskUnits="userSpaceOnUse" x=".61" y="4.728" width="61.982" height="54.188" id="fb"><path fill="#FFF" d="M63 5H30.814v53.78H63z" filter="url(#fa)"/></mask><g transform="translate(.89 .55)" mask="url(#fb)"><path fill="#F7BC1A" d="M.022 18.83l30.27 37.016.07-.092L15.35 18.83z"/><path fill="#FACB25" d="M-.28 18.468l.302.362H15.35L22.19 5.177h-9.56z"/><path fill="#DAE2ED" d="M61.235 19.83h-15.89l-7.58-15.653h11.37l12.385 14.93M46.6 17.83h11.323L48.24 6.177h-7.284L46.6 17.83z"/><path fill="#DAE2ED" d="M61.702 19.41l-30.816 38.4-1.442-2.193L45.31 17.83h15.113m-13.788 2L33.943 49.854 58.76 19.83H46.636z"/><path fill="none" stroke="#DAE2ED" stroke-width="2" d="M15.35 18.83l15.013 36.924 15.61-36.924zM15.35 18.83H45.97L39.36 5.177H22.192z"/></g><defs><filter id="fc" filterUnits="userSpaceOnUse" x="1" y="4.938" width="60.487" height="53.987"><feColorMatrix values="1 0 0 0 0 0 1 0 0 0 0 0 1 0 0 0 0 0 1 0"/></filter></defs><mask maskUnits="userSpaceOnUse" x="1" y="4.938" width="60.487" height="53.987" id="fd"><path fill="#FFF" d="M-.226 4.75H31.96v56.818H-.226z" filter="url(#fc)"/></mask><g transform="translate(.89)" mask="url(#fd)"><path fill="#F7BC1A" d="M60.598 19.135l-29.713 39.03-.167.333-.333-.25L45.27 19.134z"/><path fill="#FF8A3D" d="M21.636 4.938l-6.612 14.574H.11L12.307 4.938z"/><path fill="#FF6A00" d="M30.632 58.926L.11 19.512h14.914z"/><path fill="#FF8A3D" d="M45.646 19.512L30.632 58.926 15.024 19.512z"/><path fill="#FFAC74" d="M45.646 19.512H15.024l6.612-14.574h17.167z"/></g></svg><svg width="64" height="64" viewBox="0 0 64 64" id="diamond-level-half-filled" y="128"><title>钻石面（64x64)</title><defs><path id="ga" d="M0 0h32.2v56.335H0z"/><path id="gc" d="M0 0h32.2v56.335H0z"/></defs><g transform="translate(0 4)" fill="none" fill-rule="evenodd"><g transform="matrix(-1 0 0 1 64 0)"><mask id="gb" fill="#fff"><use xlink:href="#ga"/></mask><use fill-opacity="0" fill="#FFF" xlink:href="#ga"/><g transform="translate(.89)" mask="url(#gb)"><path fill="#F7BC1A" d="M61.227 14.637L30.943 53.812l-.07-.098 15.02-39.077z"/><path fill="#FACB25" d="M61.53 14.254l-.303.383H45.894L39.047.187h9.565z"/><path d="M21.87.188l-6.613 14.45H.337l12.2-14.45h9.334zm9.002 53.526L.336 14.637h14.92l15.616 39.077zm15.022-39.077L30.872 53.714 15.257 14.637h30.637zm0 0H15.257L21.87.187h17.177l6.847 14.45z" fill="#EBECF0"/></g></g><mask id="gd" fill="#fff"><use xlink:href="#gc"/></mask><use fill-opacity="0" fill="#FFF" xlink:href="#gc"/><g transform="translate(.89)" mask="url(#gd)"><path fill="#F7BC1A" d="M61.227 14.637L30.943 53.812l-.07-.098 15.02-39.077z"/><path fill="#FACB25" d="M61.53 14.254l-.303.383H45.894L39.047.187h9.565z"/><path fill="#FF8A3D" d="M21.87.188l-6.613 14.45H.337l12.2-14.45z"/><path fill="#FF6A00" d="M30.872 53.714L.336 14.637h14.92z"/><path fill="#FF8A3D" d="M45.894 14.637L30.872 53.714 15.257 14.637z"/><path fill="#FFAC74" d="M45.894 14.637H15.257L21.87.187h17.177z"/></g></g></svg><svg width="64" height="64" viewBox="0 0 64 64" id="diamond-level-one" x="64" y="128"><title>钻石等级64-1</title><g transform="translate(1 6)" fill="none" fill-rule="evenodd"><path fill="#FF6A00" d="M61.228 14.762l-30.285 39.51-.07-.098 15.022-39.412z"/><path fill="#FF8A3D" d="M61.53 14.376l-.302.386H45.895L39.048.19h9.565zM21.872.19L15.257 14.76H.337L12.538.19z"/><path fill="#FF6A00" d="M30.873 54.174L.336 14.762h14.92z"/><path fill="#FF8A3D" d="M45.895 14.762L30.873 54.174 15.257 14.762z"/><path fill="#FFAC74" d="M45.895 14.762H15.257L21.872.19h17.176z"/></g></svg><svg width="64" height="64" viewBox="0 0 64 64" id="e-credit-line" x="128" y="128"><path fill="#55A344" d="M30.682 60.443L4.318 45.218A2.636 2.636 0 0 1 3 42.935V4.522c0-.728.59-1.318 1.318-1.318h55.364c.728 0 1.318.59 1.318 1.318v38.412c0 .942-.502 1.812-1.318 2.283L33.318 60.443c-.815.47-1.82.47-2.636 0z"/><defs><path id="ia" d="M24.42 44.387L9.945 48.515 3 44.503V3.25h58v41.253L37.183 58.258z"/></defs><clipPath id="ib"><use xlink:href="#ia" overflow="visible"/></clipPath><g clip-path="url(#ib)"><path fill="#FFF" d="M29.52 70.526v-5.698a21.777 21.777 0 0 1-3.412-.71 14.052 14.052 0 0 1-4.91-2.554c-1.464-1.182-2.65-2.73-3.526-4.596-.872-1.856-1.314-4.113-1.314-6.707v-1.976h5.555v1.977c0 1.805.3 3.3.89 4.442.598 1.154 1.364 2.08 2.278 2.755a9.154 9.154 0 0 0 3.237 1.51c1.286.326 2.565.49 3.802.49 1.426 0 2.7-.213 3.788-.635 1.08-.42 2-.978 2.73-1.662a6.896 6.896 0 0 0 1.64-2.307c.374-.86.564-1.758.564-2.666 0-1.05-.14-1.97-.416-2.738-.25-.692-.69-1.344-1.313-1.937-.708-.674-1.693-1.336-2.93-1.967-1.328-.68-3.02-1.388-5.028-2.108a57.09 57.09 0 0 1-5.198-2.015c-1.66-.748-3.105-1.65-4.292-2.68a11.15 11.15 0 0 1-2.912-3.922c-.664-1.493-1-3.29-1-5.337 0-1.832.32-3.54.947-5.077a11.526 11.526 0 0 1 2.772-4.056c1.178-1.107 2.602-1.995 4.23-2.637a15.163 15.163 0 0 1 3.492-.894v-5.706h5.585v5.74c1.28.202 2.477.537 3.564.996a12.04 12.04 0 0 1 4.266 2.996c1.155 1.272 2.05 2.82 2.66 4.602.592 1.732.89 3.717.89 5.902v1.977h-5.554V31.35c0-1.375-.2-2.656-.59-3.81-.376-1.1-.93-2.06-1.644-2.855-.702-.778-1.59-1.4-2.64-1.845-1.072-.456-2.357-.687-3.82-.687-1.56 0-2.9.218-3.985.647-1.07.423-1.953.975-2.628 1.642a6.335 6.335 0 0 0-1.485 2.26 7.624 7.624 0 0 0-.508 2.72c0 1.037.114 1.96.34 2.747.184.648.567 1.277 1.136 1.867.648.672 1.602 1.336 2.834 1.972 1.333.69 3.128 1.412 5.335 2.148a65.312 65.312 0 0 1 5.13 2.01c1.655.74 3.102 1.644 4.3 2.686a11.73 11.73 0 0 1 2.953 3.9c.704 1.505 1.06 3.312 1.06 5.373 0 1.858-.325 3.577-.968 5.107a11.616 11.616 0 0 1-2.767 4.01c-1.167 1.097-2.576 1.975-4.188 2.61a16.07 16.07 0 0 1-3.37.898v5.774H29.52z"/></g></svg><svg width="64" height="64" viewBox="0 0 64 64" id="gold-supplier"><circle fill="#FACE32" cx="32" cy="32" r="32"/><circle fill="#E3715D" cx="32" cy="32" r="22.667"/><path fill="#FACE32" d="M17.333 20L20 30.67h24L46.667 20zM20 33.335L17.333 44h29.334L44 33.336zM28 1.333h8V16h-8zM28 48h8v14.667h-8z"/></svg><svg width="64" height="64" viewBox="0 0 64 64" id="inspection-service" x="192" y="64"><path fill="#FACE32" d="M64 17.333H0V8c0-.736.597-1.333 1.333-1.333h61.333C63.403 6.667 64 7.264 64 8v9.333z"/><path fill="#E3715D" d="M64 17.333v36.23l-3.77 3.77H1.332A1.333 1.333 0 0 1 0 56V17.333h64z"/><path fill="#FFF" d="M64 53.563l-6.716-6.716a15.987 15.987 0 0 0 3.127-9.513c0-8.865-7.212-16.078-16.077-16.078S28.256 28.47 28.256 37.334 35.468 53.41 44.333 53.41c3.386 0 6.53-1.054 9.124-2.85l6.772 6.773h2.437c.736 0 1.333-.597 1.333-1.333v-2.437zm-19.668-5.485c-5.924 0-10.744-4.82-10.744-10.744s4.82-10.745 10.744-10.745 10.745 4.82 10.745 10.744-4.82 10.744-10.745 10.744z"/></svg><svg width="64" height="64" viewBox="0 0 64 64" id="logistic-service" x="192" y="128"><circle fill="#FFF" cx="32" cy="32" r="32"/><g fill="#4F74B3"><path d="M16.022 30.667H30.67V17.333H17.934c-1.126 4.027-1.813 8.567-1.913 13.334zM17.935 46.667h12.733V33.333H16.022c.1 4.767.787 9.307 1.913 13.334zM30.67 14.667V.78c-4.894.833-9.24 6.207-11.908 13.887H30.67zM48.835 46.667h11.603a31.806 31.806 0 0 0 3.528-13.333H50.65c-.095 4.76-.735 9.266-1.815 13.333zM30.67 63.22V49.333H18.76c2.667 7.68 7.013 13.053 11.907 13.887zM48.055 14.667h10.837C54.507 7.877 47.625 2.857 39.542.902c3.558 2.874 6.536 7.714 8.513 13.765zM45.242 14.667C42.575 6.987 38.23 1.613 33.335.78v13.887h11.907zM48.835 17.333c1.08 4.067 1.72 8.573 1.813 13.333h13.318a31.817 31.817 0 0 0-3.528-13.333H48.835zM15.95 49.333H5.106c4.387 6.792 11.27 11.813 19.357 13.766-3.56-2.875-6.537-7.715-8.515-13.767zM33.335 49.333V63.22c4.893-.833 9.24-6.207 11.907-13.887H33.335zM13.355 33.333H.035A31.817 31.817 0 0 0 3.56 46.666H15.17c-1.08-4.066-1.72-8.573-1.815-13.333zM48.055 49.333c-1.978 6.05-4.956 10.89-8.514 13.764 8.085-1.954 14.967-6.975 19.352-13.764H48.055zM3.562 17.333A31.806 31.806 0 0 0 .034 30.666h13.322c.093-4.76.733-9.267 1.813-13.333H3.56zM47.982 33.333H33.335v13.333h12.733c1.127-4.026 1.814-8.566 1.914-13.333zM15.95 14.667C17.926 8.615 20.905 3.775 24.464.9 16.378 2.855 9.495 7.876 5.107 14.668H15.95zM46.07 17.333H33.334v13.333h14.647c-.1-4.766-.787-9.306-1.913-13.333z"/></g><path fill="#D9624E" d="M50.605 30.667l-4.14-6.212-4.336-7.057c-1.376-2.175-2.035-4.86-2.035-6.723C40.095 4.78 44.8 0 50.605 0s10.51 4.78 10.51 10.674c0 0 .267 3.445-2.123 6.89l-3.245 5.276-5.142 7.827z"/><path fill="#C43F31" d="M50.61 5.812c2.416 0 4.38 1.96 4.38 4.38a4.386 4.386 0 0 1-4.38 4.382 4.382 4.382 0 0 1-4.38-4.38c0-2.423 1.958-4.382 4.38-4.382z"/></svg><svg width="64" height="64" viewBox="0 0 64 64" id="new" y="192"><title>64x64</title><g transform="translate(0 16)" fill="none" fill-rule="evenodd"><path fill="#1DC11D" d="M0 0h64v27.43H3.657L0 31.085z"/><path d="M20.92 21.943h-2.11L11.3 10.03l-.064.02v11.893h-2.11v-15.6h2.11l7.51 11.903.065-.02V6.342h2.11v15.6zm12.076-7.232H26.59v5.583h7.5v1.65h-9.61v-15.6h9.49v1.66h-7.38v5.047h6.406v1.66zm6.89 1.822l.268 2.047.064.01.364-2.058 2.764-10.19h2.068l2.786 10.19.364 2.09h.065l.288-2.09 2.228-10.19h2.293l-3.772 15.6h-1.886l-3.118-10.82-.235-1.404h-.066l-.225 1.403-3.16 10.823h-1.887l-3.76-15.6h2.28l2.273 10.19z" fill="#FFF"/></g></svg><svg width="64" height="64" viewBox="0 0 64 64" id="onsite-check" x="64" y="192"><path fill="#FACE32" d="M52.102 41.265l-5.483 5.483a4.96 4.96 0 0 1-3.5 1.453 4.933 4.933 0 0 1-3.437-1.398l-9.796-9.81 7.037-7.043 2.657 2.71 1.178-1.177a1.644 1.644 0 0 1 2.34 0l-.006.007-2.335 2.34-3.088 3.096.342.424h.007c.14.14.288.256.45.363.155.108.316.195.49.256.17.066.35.12.532.147.16.027.316.04.478.04.27 0 .53-.034.787-.108.14-.048.29-.102.424-.17.27-.127.526-.31.748-.53l1.17-1.172 3.546 3.546 1.54 1.54c.068.068.142.136.216.19.148.12.296.22.457.302.067.04.14.074.215.1.013.008.02.008.034.014a2.68 2.68 0 0 0 1.433.175h.014a2.27 2.27 0 0 0 .377-.088 2.61 2.61 0 0 0 1.172-.692z"/><path fill="#F2B211" d="M56.36 36.993l-4.26 4.272c-.335.343-.74.572-1.17.693-.12.04-.25.067-.377.088h-.013c-.31.047-.62.04-.928-.02a2.98 2.98 0 0 1-.505-.155c-.013-.006-.02-.006-.034-.012a1.28 1.28 0 0 1-.215-.1 2.48 2.48 0 0 1-.457-.304 1.892 1.892 0 0 1-.214-.188l-1.54-1.54-3.546-3.547-1.17 1.17a2.72 2.72 0 0 1-.748.532c-.135.067-.283.12-.424.168a2.864 2.864 0 0 1-1.265.068 2.403 2.403 0 0 1-.53-.148 2.017 2.017 0 0 1-.49-.256 2.977 2.977 0 0 1-.452-.363h-.007l-.343-.423 3.088-3.095 2.335-2.34.007-.008h.007c.323-.323.747-.49 1.17-.49s.85.167 1.172.49l1.176 1.17.034-.033 2.664-2.67 7.036 7.043z"/><path fill="#4F74B3" d="M60.388 31.124c.514.514.515 1.347.002 1.862l-4.01 4.026-.02-.02-7.037-7.044 4.938-4.952 6.128 6.128zM36.924 29.95l-7.037 7.043-3.966-3.958a1.318 1.318 0 0 1 0-1.865l6.073-6.073 4.93 4.852z"/><path fill="#4F74B3" d="M61 51.5v7.91c0 .727-.59 1.317-1.318 1.317H4.318C3.59 60.727 3 60.137 3 59.41V32.82c0-.7.278-1.37.772-1.865L31.068 3.66a1.318 1.318 0 0 1 1.864 0L50.31 21.035l-7.46 7.454L32 17.642h-.007L13.545 36.097h-.007v14.085H59.68c.73 0 1.32.59 1.32 1.318z"/></svg><svg width="64" height="64" viewBox="0 0 64 64" id="secure-payment" x="128" y="192"><path fill="#FACE32" d="M62.663 57.33H1.336A1.333 1.333 0 0 1 .003 56V8.003c0-.736.597-1.333 1.333-1.333h61.327c.736 0 1.333.597 1.333 1.333v47.995c0 .736-.597 1.333-1.333 1.333z"/><path fill="#FFF" d="M.003 30.667H6.67v2.666H.002zM57.33 30.667h6.667v2.666H57.33z"/><g fill="#FFF"><path d="M20.125 6.67a27.963 27.963 0 0 0-10.64 8.685l-.4.54H0V13.23h7.753a30.36 30.36 0 0 1 6.993-6.56h5.38zM64 13.242v2.666h-9.08l-.4-.54a27.997 27.997 0 0 0-10.638-8.7h5.36c2.645 1.794 5.025 4 7.018 6.574H64z"/></g><g fill="#FFF"><path d="M20.038 57.33h-5.34a30.767 30.767 0 0 1-6.425-5.905H0V48.76h9.56l.4.506a28.028 28.028 0 0 0 10.078 8.065zM63.993 48.105v2.666h-7.746a30.34 30.34 0 0 1-6.993 6.56h-5.38a27.963 27.963 0 0 0 10.64-8.686l.4-.54h9.08z"/></g><g fill="#55A344"><path d="M17.335 22.668h-6v18.665h4v-6.666h2a6 6 0 0 0 0-12zm2 6.332c0 .92-.747 1.666-1.666 1.666h-2.334v-4h2.333c.92 0 1.665.747 1.665 1.666V29zM53.998 22.668L48.665 34v7.332h-4V34l-5.332-11.332H43.6L46.65 29.5l3.013-6.832zM38.44 38l-.714-2.667-.36-1.333-3.033-11.332h-4.666L26.634 34l-.36 1.333L25.56 38l-.892 3.332h4l.82-3.333h5.026l.82 3.332h4L38.44 38zm-6.446-10.233L33.527 34h-3.06l1.527-6.233z"/></g></svg><svg width="64" height="64" viewBox="0 0 64 64" id="ta-selected" x="192" y="192"><title>64x64</title><g transform="translate(2 -1)" fill="none" fill-rule="evenodd"><path d="M58.862 39.468c-5.92 11.523-16.238 20.422-28.736 24.49H28.88C16.49 59.925 6.243 51.148.3 39.768V1.272c0-.497.404-.896.898-.896h56.768c.493 0 .896.4.896.896v38.196z" fill="#F8BD00"/><path d="M58.86 1.272v38.196c-5.92 11.523-16.238 20.42-28.736 24.49h-.543V.376h28.383c.494 0 .897.4.897.896" fill="#FBCC00"/><path d="M27.065 38.204a4.206 4.206 0 0 1-3.21-1.468l-5.75-6.6a2.653 2.653 0 0 1-.654-1.785 2.704 2.704 0 0 1 2.695-2.706c.425 0 .848.103 1.256.308l4.43 2.425 11.016-15.044.022-.026c.555-.67 1.32-1.038 2.15-1.038a2.703 2.703 0 0 1 2.694 2.706c0 .455-.116.9-.336 1.286L30.82 35.968a4.274 4.274 0 0 1-3.755 2.236" fill="#DB5D45"/></g></svg><svg width="64" height="64" viewBox="0 0 64 64" id="trade-assurance" x="256"><path fill-rule="evenodd" clip-rule="evenodd" fill="#FFBA00" d="M52.268 5.564V14.5h-9.784V2.637L32 0 21.516 2.636V14.5h-9.784V5.565L1.592 8.65l2.644 46.703L32 64l27.764-8.647L62.41 8.65z"/><path fill-rule="evenodd" clip-rule="evenodd" fill="#FF991F" d="M1.59 8.65l10.142-3.086V14.5h9.784V2.637L32 0v64L4.236 55.353z"/><path fill="#FFF" d="M35.643 40.64c0-1.067-.33-1.934-.993-2.603-.66-.668-1.808-1.29-3.438-1.866-2.635-.893-4.587-1.948-5.856-3.16s-1.902-2.918-1.902-5.112c0-2.084.61-3.766 1.83-5.047 1.218-1.28 2.906-2.05 5.064-2.307v-4.008h2.942v4.044c2.145.318 3.797 1.203 4.955 2.656 1.16 1.453 1.738 3.423 1.738 5.91h-4.45c0-1.568-.338-2.79-1.012-3.667s-1.623-1.316-2.85-1.316c-1.274 0-2.217.328-2.83.984-.614.656-.92 1.56-.92 2.712 0 1.078.32 1.94.956 2.583s1.826 1.272 3.567 1.885c2.635.944 4.572 2.013 5.81 3.208 1.238 1.196 1.857 2.884 1.857 5.066 0 2.157-.635 3.858-1.904 5.102s-3.037 1.982-5.304 2.216v3.584H29.98v-3.567c-2.233-.233-4.05-1.02-5.454-2.362-1.403-1.343-2.105-3.374-2.105-6.095h4.47c0 1.777.42 3.03 1.26 3.76.84.73 1.908 1.094 3.208 1.094 1.385 0 2.445-.325 3.18-.975.738-.65 1.105-1.556 1.105-2.72z"/><path opacity=".2" fill-rule="evenodd" clip-rule="evenodd" fill="#FFF" d="M32 64L1.592 8.65 32 27.403zM32 64L62.41 8.65 32 27.42z"/></svg><svg width="64" height="64" viewBox="0 0 64 64" id="trade-assurance_100percent" x="256" y="64"><defs><path id="rc" d="M0 7.62h64v48.76H0z"/></defs><clipPath id="rd"><use xlink:href="#rc" overflow="visible"/></clipPath><g clip-path="url(#rd)"><defs><path id="re" d="M45.5 44.19c-4.216 7.287-12.095 12.19-21.12 12.19C10.917 56.38 0 45.465 0 32S10.916 7.62 24.38 7.62c9.025 0 16.905 4.902 21.12 12.19h-3.61c-3.855-5.528-10.26-9.144-17.51-9.144C12.6 10.666 3.048 20.218 3.048 32s9.55 21.333 21.333 21.333c7.25 0 13.655-3.616 17.51-9.143h3.61z"/></defs><clipPath id="rf"><use xlink:href="#re" overflow="visible"/></clipPath><g clip-path="url(#rf)"><defs><path id="rg" d="M0 7.62h64v48.76H0z"/></defs><clipPath id="rh"><use xlink:href="#rg" overflow="visible"/></clipPath><path clip-path="url(#rh)" fill="#1DC11D" d="M-15.238-7.62h75.976v79.24h-75.976z"/></g></g><g clip-path="url(#rd)"><defs><path id="ri" d="M0 7.62h64v48.76H0z"/></defs><clipPath id="rj"><use xlink:href="#ri" overflow="visible"/></clipPath><g clip-path="url(#rj)"><text transform="translate(6.097 41.144)" fill="#0EC826" font-family="'Roboto-Regular'" font-size="24.381">100%</text></g><g clip-path="url(#rj)"><text transform="translate(6.097 41.144)" fill="#0EC826" font-family="'Roboto-Regular'" font-size="24.381">100%</text></g></g></svg><svg width="64" height="64" viewBox="0 0 64 64" id="trade-assurance_new" x="256" y="128"><path fill-rule="evenodd" clip-rule="evenodd" fill="#FACE32" d="M52.268 5.564V14.5h-9.784V2.637L32 0 21.516 2.636V14.5h-9.784V5.565L1.592 8.65l2.644 46.703L32 64l27.764-8.647L62.408 8.65z"/><path fill="#FFF" d="M35.643 40.64c0-1.067-.33-1.934-.993-2.603-.66-.668-1.808-1.29-3.438-1.866-2.635-.893-4.587-1.948-5.856-3.16s-1.902-2.918-1.902-5.112c0-2.084.61-3.766 1.83-5.047 1.218-1.28 2.906-2.05 5.064-2.307v-4.008h2.942v4.044c2.145.318 3.797 1.203 4.955 2.656 1.16 1.453 1.738 3.423 1.738 5.91h-4.45c0-1.568-.338-2.79-1.012-3.667-.673-.877-1.623-1.316-2.85-1.316-1.274 0-2.217.328-2.83.984-.614.656-.92 1.56-.92 2.712 0 1.078.32 1.94.956 2.583s1.826 1.272 3.567 1.885c2.635.944 4.572 2.013 5.81 3.208 1.238 1.196 1.857 2.884 1.857 5.066 0 2.157-.635 3.858-1.904 5.102s-3.037 1.982-5.304 2.216v3.584H29.98v-3.567c-2.233-.233-4.05-1.02-5.454-2.362-1.403-1.343-2.105-3.374-2.105-6.095h4.47c0 1.777.42 3.03 1.26 3.76.84.73 1.908 1.094 3.208 1.094 1.385 0 2.445-.325 3.18-.975.738-.65 1.105-1.556 1.105-2.72z"/></svg></svg>